<mxfile host="app.diagrams.net" modified="2024-04-18T12:19:00.124Z" agent="Mozilla/5.0 (Windows NT 10.0; Win64; x64) AppleWebKit/537.36 (KHTML, like Gecko) Chrome/122.0.0.0 Safari/537.36" version="24.2.5" etag="16B-ciLNnQWPNgPn7pvG" type="github">
  <diagram name="第 1 页" id="B2-YiswaVj8pcaF8UkRX">
    <mxGraphModel>
      <root>
        <mxCell id="0" />
        <mxCell id="1" parent="0" />
      </root>
    </mxGraphModel>
  </diagram>
</mxfile>
